<svg width="1em" height="1em" viewBox="0 0 24 24" fill="none" xmlns="http://www.w3.org/2000/svg">
<path d="M5.99248 13.3875L1.75498 9.14998C1.16248 8.55748 1.58248 7.53748 2.42248 7.53748H5.99248V13.3875Z" fill="url(#paint0_radial_343_871)"/>
<path d="M5.99248 13.3875L1.75498 9.14998C1.16248 8.55748 1.58248 7.53748 2.42248 7.53748H5.99248V13.3875Z" fill="url(#paint1_linear_343_871)"/>
<path d="M18.0149 13.3875L22.2524 9.14998C22.8449 8.55748 22.4249 7.53748 21.5849 7.53748H18.0149V13.3875Z" fill="url(#paint2_linear_343_871)"/>
<path d="M18.0149 13.3875L22.2524 9.14998C22.8449 8.55748 22.4249 7.53748 21.5849 7.53748H18.0149V13.3875Z" fill="url(#paint3_radial_343_871)"/>
<path d="M18.0149 13.3875L22.2524 9.14998C22.8449 8.55748 22.4249 7.53748 21.5849 7.53748H18.0149V13.3875Z" fill="url(#paint4_radial_343_871)"/>
<path d="M18.0149 13.3875L22.2524 9.14998C22.8449 8.55748 22.4249 7.53748 21.5849 7.53748H18.0149V13.3875Z" fill="url(#paint5_linear_343_871)"/>
<path d="M12 1.5C8.67004 1.5 5.97754 4.1925 5.97754 7.5225V14.4675H18.0225V7.5225C18.015 4.1925 15.3225 1.5 12 1.5Z" fill="url(#paint6_linear_343_871)"/>
<path d="M12 1.5C8.67004 1.5 5.97754 4.1925 5.97754 7.5225V14.4675H18.0225V7.5225C18.015 4.1925 15.3225 1.5 12 1.5Z" fill="url(#paint7_radial_343_871)"/>
<path d="M12 1.5C8.67004 1.5 5.97754 4.1925 5.97754 7.5225V14.4675H18.0225V7.5225C18.015 4.1925 15.3225 1.5 12 1.5Z" fill="url(#paint8_linear_343_871)"/>
<path d="M12 1.5C8.67004 1.5 5.97754 4.1925 5.97754 7.5225V14.4675H18.0225V7.5225C18.015 4.1925 15.3225 1.5 12 1.5Z" fill="url(#paint9_radial_343_871)"/>
<path d="M12 1.5C8.67004 1.5 5.97754 4.1925 5.97754 7.5225V14.4675H18.0225V7.5225C18.015 4.1925 15.3225 1.5 12 1.5Z" fill="url(#paint10_radial_343_871)"/>
<path d="M12 1.5C8.67004 1.5 5.97754 4.1925 5.97754 7.5225V14.4675H18.0225V7.5225C18.015 4.1925 15.3225 1.5 12 1.5Z" fill="url(#paint11_radial_343_871)"/>
<path d="M12 1.5C8.67004 1.5 5.97754 4.1925 5.97754 7.5225V14.4675H18.0225V7.5225C18.015 4.1925 15.3225 1.5 12 1.5Z" fill="url(#paint12_radial_343_871)"/>
<g filter="url(#filter0_f_343_871)">
<ellipse cx="13.3543" cy="5.30502" rx="4.3543" ry="2.67597" transform="rotate(28.8176 13.3543 5.30502)" fill="url(#paint13_linear_343_871)"/>
</g>
<g filter="url(#filter1_i_343_871)">
<path d="M19.1144 10.7833C19.0169 10.6849 18.858 10.6846 18.7601 10.7825L16.5194 13.0232C16.4218 13.1208 16.2635 13.1208 16.1658 13.0232L12.1694 9.02675C12.0718 8.92912 11.9135 8.92912 11.8158 9.02675L7.81938 13.0232C7.72175 13.1208 7.56346 13.1208 7.46583 13.0232L5.23188 10.7893C5.13425 10.6916 4.97596 10.6916 4.87833 10.7893L2.56905 13.0985C2.47529 13.1923 2.422 13.3202 2.42482 13.4528C2.53526 18.6442 6.77455 22.815 11.9926 22.815C17.2035 22.815 21.4428 18.6439 21.5601 13.4594C21.5631 13.3273 21.5104 13.1998 21.4174 13.106L19.1144 10.7833Z" fill="url(#paint14_linear_343_871)"/>
<path d="M19.1144 10.7833C19.0169 10.6849 18.858 10.6846 18.7601 10.7825L16.5194 13.0232C16.4218 13.1208 16.2635 13.1208 16.1658 13.0232L12.1694 9.02675C12.0718 8.92912 11.9135 8.92912 11.8158 9.02675L7.81938 13.0232C7.72175 13.1208 7.56346 13.1208 7.46583 13.0232L5.23188 10.7893C5.13425 10.6916 4.97596 10.6916 4.87833 10.7893L2.56905 13.0985C2.47529 13.1923 2.422 13.3202 2.42482 13.4528C2.53526 18.6442 6.77455 22.815 11.9926 22.815C17.2035 22.815 21.4428 18.6439 21.5601 13.4594C21.5631 13.3273 21.5104 13.1998 21.4174 13.106L19.1144 10.7833Z" fill="url(#paint15_radial_343_871)"/>
<path d="M19.1144 10.7833C19.0169 10.6849 18.858 10.6846 18.7601 10.7825L16.5194 13.0232C16.4218 13.1208 16.2635 13.1208 16.1658 13.0232L12.1694 9.02675C12.0718 8.92912 11.9135 8.92912 11.8158 9.02675L7.81938 13.0232C7.72175 13.1208 7.56346 13.1208 7.46583 13.0232L5.23188 10.7893C5.13425 10.6916 4.97596 10.6916 4.87833 10.7893L2.56905 13.0985C2.47529 13.1923 2.422 13.3202 2.42482 13.4528C2.53526 18.6442 6.77455 22.815 11.9926 22.815C17.2035 22.815 21.4428 18.6439 21.5601 13.4594C21.5631 13.3273 21.5104 13.1998 21.4174 13.106L19.1144 10.7833Z" fill="url(#paint16_radial_343_871)"/>
<path d="M19.1144 10.7833C19.0169 10.6849 18.858 10.6846 18.7601 10.7825L16.5194 13.0232C16.4218 13.1208 16.2635 13.1208 16.1658 13.0232L12.1694 9.02675C12.0718 8.92912 11.9135 8.92912 11.8158 9.02675L7.81938 13.0232C7.72175 13.1208 7.56346 13.1208 7.46583 13.0232L5.23188 10.7893C5.13425 10.6916 4.97596 10.6916 4.87833 10.7893L2.56905 13.0985C2.47529 13.1923 2.422 13.3202 2.42482 13.4528C2.53526 18.6442 6.77455 22.815 11.9926 22.815C17.2035 22.815 21.4428 18.6439 21.5601 13.4594C21.5631 13.3273 21.5104 13.1998 21.4174 13.106L19.1144 10.7833Z" fill="url(#paint17_radial_343_871)"/>
<path d="M19.1144 10.7833C19.0169 10.6849 18.858 10.6846 18.7601 10.7825L16.5194 13.0232C16.4218 13.1208 16.2635 13.1208 16.1658 13.0232L12.1694 9.02675C12.0718 8.92912 11.9135 8.92912 11.8158 9.02675L7.81938 13.0232C7.72175 13.1208 7.56346 13.1208 7.46583 13.0232L5.23188 10.7893C5.13425 10.6916 4.97596 10.6916 4.87833 10.7893L2.56905 13.0985C2.47529 13.1923 2.422 13.3202 2.42482 13.4528C2.53526 18.6442 6.77455 22.815 11.9926 22.815C17.2035 22.815 21.4428 18.6439 21.5601 13.4594C21.5631 13.3273 21.5104 13.1998 21.4174 13.106L19.1144 10.7833Z" fill="url(#paint18_radial_343_871)"/>
<path d="M19.1144 10.7833C19.0169 10.6849 18.858 10.6846 18.7601 10.7825L16.5194 13.0232C16.4218 13.1208 16.2635 13.1208 16.1658 13.0232L12.1694 9.02675C12.0718 8.92912 11.9135 8.92912 11.8158 9.02675L7.81938 13.0232C7.72175 13.1208 7.56346 13.1208 7.46583 13.0232L5.23188 10.7893C5.13425 10.6916 4.97596 10.6916 4.87833 10.7893L2.56905 13.0985C2.47529 13.1923 2.422 13.3202 2.42482 13.4528C2.53526 18.6442 6.77455 22.815 11.9926 22.815C17.2035 22.815 21.4428 18.6439 21.5601 13.4594C21.5631 13.3273 21.5104 13.1998 21.4174 13.106L19.1144 10.7833Z" fill="url(#paint19_radial_343_871)"/>
</g>
<g filter="url(#filter2_f_343_871)">
<ellipse cx="11.3986" cy="7.26575" rx="1.9759" ry="0.727551" transform="rotate(-16.6311 11.3986 7.26575)" fill="url(#paint20_linear_343_871)"/>
</g>
<path d="M8.58521 6.00317C8.79231 6.00317 8.96021 5.83528 8.96021 5.62817C8.96021 5.42107 8.79231 5.25317 8.58521 5.25317C8.3781 5.25317 8.21021 5.42107 8.21021 5.62817C8.21021 5.83528 8.3781 6.00317 8.58521 6.00317Z" fill="url(#paint21_radial_343_871)"/>
<path d="M8.58521 6.00317C8.79231 6.00317 8.96021 5.83528 8.96021 5.62817C8.96021 5.42107 8.79231 5.25317 8.58521 5.25317C8.3781 5.25317 8.21021 5.42107 8.21021 5.62817C8.21021 5.83528 8.3781 6.00317 8.58521 6.00317Z" fill="url(#paint22_radial_343_871)"/>
<path d="M8.58521 6.00317C8.79231 6.00317 8.96021 5.83528 8.96021 5.62817C8.96021 5.42107 8.79231 5.25317 8.58521 5.25317C8.3781 5.25317 8.21021 5.42107 8.21021 5.62817C8.21021 5.83528 8.3781 6.00317 8.58521 6.00317Z" fill="url(#paint23_linear_343_871)"/>
<path d="M15.4072 6.00317C15.6143 6.00317 15.7822 5.83528 15.7822 5.62817C15.7822 5.42107 15.6143 5.25317 15.4072 5.25317C15.2001 5.25317 15.0322 5.42107 15.0322 5.62817C15.0322 5.83528 15.2001 6.00317 15.4072 6.00317Z" fill="url(#paint24_radial_343_871)"/>
<path d="M15.4072 6.00317C15.6143 6.00317 15.7822 5.83528 15.7822 5.62817C15.7822 5.42107 15.6143 5.25317 15.4072 5.25317C15.2001 5.25317 15.0322 5.42107 15.0322 5.62817C15.0322 5.83528 15.2001 6.00317 15.4072 6.00317Z" fill="url(#paint25_radial_343_871)"/>
<path d="M15.4072 6.00317C15.6143 6.00317 15.7822 5.83528 15.7822 5.62817C15.7822 5.42107 15.6143 5.25317 15.4072 5.25317C15.2001 5.25317 15.0322 5.42107 15.0322 5.62817C15.0322 5.83528 15.2001 6.00317 15.4072 6.00317Z" fill="url(#paint26_linear_343_871)"/>
<path d="M13.44 6.81744H10.5525C10.5525 6.02244 11.1975 5.37744 11.9925 5.37744C12.7875 5.37744 13.44 6.02244 13.44 6.81744Z" fill="#ED6C32"/>
<path d="M13.44 6.81744H10.5525C10.5525 6.02244 11.1975 5.37744 11.9925 5.37744C12.7875 5.37744 13.44 6.02244 13.44 6.81744Z" fill="url(#paint27_radial_343_871)"/>
<path d="M13.44 6.81744H10.5525C10.5525 6.02244 11.1975 5.37744 11.9925 5.37744C12.7875 5.37744 13.44 6.02244 13.44 6.81744Z" fill="url(#paint28_linear_343_871)"/>
<path d="M13.44 6.81744H10.5525C10.5525 6.02244 11.1975 5.37744 11.9925 5.37744C12.7875 5.37744 13.44 6.02244 13.44 6.81744Z" fill="url(#paint29_radial_343_871)"/>
<g filter="url(#filter3_f_343_871)">
<ellipse cx="6.9589" cy="16.856" rx="2.75957" ry="4.67669" transform="rotate(-34.2295 6.9589 16.856)" fill="url(#paint30_radial_343_871)"/>
</g>
<defs>
<filter id="filter0_f_343_871" x="7.82593" y="0.658203" width="11.0566" height="9.29358" filterUnits="userSpaceOnUse" color-interpolation-filters="sRGB">
<feFlood flood-opacity="0" result="BackgroundImageFix"/>
<feBlend mode="normal" in="SourceGraphic" in2="BackgroundImageFix" result="shape"/>
<feGaussianBlur stdDeviation="0.75" result="effect1_foregroundBlur_343_871"/>
</filter>
<filter id="filter1_i_343_871" x="2.4248" y="8.95349" width="19.2355" height="13.9615" filterUnits="userSpaceOnUse" color-interpolation-filters="sRGB">
<feFlood flood-opacity="0" result="BackgroundImageFix"/>
<feBlend mode="normal" in="SourceGraphic" in2="BackgroundImageFix" result="shape"/>
<feColorMatrix in="SourceAlpha" type="matrix" values="0 0 0 0 0 0 0 0 0 0 0 0 0 0 0 0 0 0 127 0" result="hardAlpha"/>
<feOffset dx="0.1" dy="0.1"/>
<feGaussianBlur stdDeviation="0.1"/>
<feComposite in2="hardAlpha" operator="arithmetic" k2="-1" k3="1"/>
<feColorMatrix type="matrix" values="0 0 0 0 0.682353 0 0 0 0 0.615686 0 0 0 0 0.6 0 0 0 0.5 0"/>
<feBlend mode="normal" in2="shape" result="effect1_innerShadow_343_871"/>
</filter>
<filter id="filter2_f_343_871" x="8.49365" y="5.36804" width="5.80981" height="3.79541" filterUnits="userSpaceOnUse" color-interpolation-filters="sRGB">
<feFlood flood-opacity="0" result="BackgroundImageFix"/>
<feBlend mode="normal" in="SourceGraphic" in2="BackgroundImageFix" result="shape"/>
<feGaussianBlur stdDeviation="0.5" result="effect1_foregroundBlur_343_871"/>
</filter>
<filter id="filter3_f_343_871" x="2.47656" y="11.6882" width="8.9646" height="10.3354" filterUnits="userSpaceOnUse" color-interpolation-filters="sRGB">
<feFlood flood-opacity="0" result="BackgroundImageFix"/>
<feBlend mode="normal" in="SourceGraphic" in2="BackgroundImageFix" result="shape"/>
<feGaussianBlur stdDeviation="0.5" result="effect1_foregroundBlur_343_871"/>
</filter>
<radialGradient id="paint0_radial_343_871" cx="0" cy="0" r="1" gradientUnits="userSpaceOnUse" gradientTransform="translate(1.1384 7.53748) rotate(26.1542) scale(8.44068 4.76882)">
<stop stop-color="#DAB830"/>
<stop offset="1" stop-color="#B96D1E"/>
<stop offset="1" stop-color="#DB8021"/>
</radialGradient>
<linearGradient id="paint1_linear_343_871" x1="6.6106" y1="11.9297" x2="4.98041" y2="12.1133" gradientUnits="userSpaceOnUse">
<stop stop-color="#CD7C10"/>
<stop offset="1" stop-color="#CD7C10" stop-opacity="0"/>
</linearGradient>
<linearGradient id="paint2_linear_343_871" x1="22.9362" y1="6.41544" x2="18.0149" y2="12.0833" gradientUnits="userSpaceOnUse">
<stop stop-color="#F8EC1D"/>
<stop offset="1" stop-color="#F5891F"/>
</linearGradient>
<radialGradient id="paint3_radial_343_871" cx="0" cy="0" r="1" gradientUnits="userSpaceOnUse" gradientTransform="translate(27.1019 6.01014) rotate(156.138) scale(9.42662 1.14149)">
<stop stop-color="#F8EC1D"/>
<stop offset="1" stop-color="#F8EC1D" stop-opacity="0"/>
</radialGradient>
<radialGradient id="paint4_radial_343_871" cx="0" cy="0" r="1" gradientUnits="userSpaceOnUse" gradientTransform="translate(22.5296 7.94085) rotate(154.22) scale(1.43599 0.818545)">
<stop stop-color="#F8EC1D"/>
<stop offset="0.512609" stop-color="#F8EC1D" stop-opacity="0"/>
</radialGradient>
<linearGradient id="paint5_linear_343_871" x1="20.4656" y1="11.5957" x2="19.8619" y2="10.1168" gradientUnits="userSpaceOnUse">
<stop stop-color="#D39344"/>
<stop offset="1" stop-color="#DF9D4C" stop-opacity="0"/>
</linearGradient>
<linearGradient id="paint6_linear_343_871" x1="11.9974" y1="0.023475" x2="11.9974" y2="16.6835" gradientUnits="userSpaceOnUse">
<stop stop-color="#F8EC1D"/>
<stop offset="1" stop-color="#F5891F"/>
</linearGradient>
<radialGradient id="paint7_radial_343_871" cx="0" cy="0" r="1" gradientUnits="userSpaceOnUse" gradientTransform="translate(18.2917 15.5446) rotate(-137.406) scale(19.3018 15.2448)">
<stop offset="0.664028" stop-color="#BBA553" stop-opacity="0"/>
<stop offset="1" stop-color="#BBA553"/>
</radialGradient>
<linearGradient id="paint8_linear_343_871" x1="7.11694" y1="10.1417" x2="5.31939" y2="10.1417" gradientUnits="userSpaceOnUse">
<stop stop-color="#BBA553" stop-opacity="0"/>
<stop offset="1" stop-color="#BBA553"/>
</linearGradient>
<radialGradient id="paint9_radial_343_871" cx="0" cy="0" r="1" gradientUnits="userSpaceOnUse" gradientTransform="translate(7.38409 12.9375) rotate(-38.3371) scale(10.1667 10.0824)">
<stop stop-color="#BD7614"/>
<stop offset="1" stop-color="#D18B2B" stop-opacity="0"/>
</radialGradient>
<radialGradient id="paint10_radial_343_871" cx="0" cy="0" r="1" gradientUnits="userSpaceOnUse" gradientTransform="translate(16.2435 14.0625) rotate(-90) scale(2.90625 1.86328)">
<stop offset="0.205645" stop-color="#D6722E"/>
<stop offset="1" stop-color="#D6722E" stop-opacity="0"/>
</radialGradient>
<radialGradient id="paint11_radial_343_871" cx="0" cy="0" r="1" gradientUnits="userSpaceOnUse" gradientTransform="translate(7.61846 14.1562) rotate(-90) scale(3.14062 2.01355)">
<stop offset="0.205645" stop-color="#D6722E"/>
<stop offset="1" stop-color="#D6722E" stop-opacity="0"/>
</radialGradient>
<radialGradient id="paint12_radial_343_871" cx="0" cy="0" r="1" gradientUnits="userSpaceOnUse" gradientTransform="translate(9.77471 13.5) rotate(-130.956) scale(3.28961 4.42311)">
<stop offset="0.30599" stop-color="#D6722E"/>
<stop offset="1" stop-color="#D6722E" stop-opacity="0"/>
</radialGradient>
<linearGradient id="paint13_linear_343_871" x1="13.5207" y1="1.21836" x2="13.3543" y2="7.98099" gradientUnits="userSpaceOnUse">
<stop stop-color="#F8E31D"/>
<stop offset="1" stop-color="#F8E31D" stop-opacity="0"/>
</linearGradient>
<linearGradient id="paint14_linear_343_871" x1="11.9975" y1="9.60935" x2="11.9975" y2="24.6093" gradientUnits="userSpaceOnUse">
<stop stop-color="#DED6E7"/>
<stop offset="1" stop-color="#C0AADD"/>
</linearGradient>
<radialGradient id="paint15_radial_343_871" cx="0" cy="0" r="1" gradientUnits="userSpaceOnUse" gradientTransform="translate(12.3998 12.75) rotate(137.555) scale(12.6411 12.4782)">
<stop offset="0.719299" stop-color="#AEA7BB" stop-opacity="0"/>
<stop offset="1" stop-color="#87838E"/>
</radialGradient>
<radialGradient id="paint16_radial_343_871" cx="0" cy="0" r="1" gradientUnits="userSpaceOnUse" gradientTransform="translate(2.57946 12.0937) rotate(48.3665) scale(1.69335 11.3178)">
<stop stop-color="#87838E"/>
<stop offset="0.686446" stop-color="#AEA7BB" stop-opacity="0"/>
</radialGradient>
<radialGradient id="paint17_radial_343_871" cx="0" cy="0" r="1" gradientUnits="userSpaceOnUse" gradientTransform="translate(17.3685 11.7422) rotate(83.8482) scale(7.87346 6.72637)">
<stop stop-color="#EBE3F2"/>
<stop offset="1" stop-color="#EBE3F2" stop-opacity="0"/>
</radialGradient>
<radialGradient id="paint18_radial_343_871" cx="0" cy="0" r="1" gradientUnits="userSpaceOnUse" gradientTransform="translate(10.4779 12.4219) rotate(20.3231) scale(13.4964 15.9617)">
<stop offset="0.689867" stop-color="#AEA7BB" stop-opacity="0"/>
<stop offset="0.948509" stop-color="#87838E"/>
</radialGradient>
<radialGradient id="paint19_radial_343_871" cx="0" cy="0" r="1" gradientUnits="userSpaceOnUse" gradientTransform="translate(19.0091 27) rotate(-125.828) scale(13.7738 12.8314)">
<stop stop-color="#A58BC3"/>
<stop offset="0.931437" stop-color="#A58BC3" stop-opacity="0"/>
</radialGradient>
<linearGradient id="paint20_linear_343_871" x1="13.0236" y1="7.34927" x2="7.93478" y2="8.14595" gradientUnits="userSpaceOnUse">
<stop stop-color="#E5951B"/>
<stop offset="1" stop-color="#E5951B" stop-opacity="0"/>
</linearGradient>
<radialGradient id="paint21_radial_343_871" cx="0" cy="0" r="1" gradientUnits="userSpaceOnUse" gradientTransform="translate(8.69653 5.50751) rotate(125.838) scale(0.520397 0.463955)">
<stop offset="0.00558659" stop-color="#433437"/>
<stop offset="1" stop-color="#3B2838"/>
</radialGradient>
<radialGradient id="paint22_radial_343_871" cx="0" cy="0" r="1" gradientUnits="userSpaceOnUse" gradientTransform="translate(8.72535 5.53442) rotate(137.643) scale(0.269595 0.237178)">
<stop stop-color="#5C5051"/>
<stop offset="1" stop-color="#5C5051" stop-opacity="0"/>
</radialGradient>
<linearGradient id="paint23_linear_343_871" x1="8.51148" y1="5.33363" x2="8.25367" y2="5.16957" gradientUnits="userSpaceOnUse">
<stop stop-color="#5C5051" stop-opacity="0"/>
<stop offset="1" stop-color="#5C5051"/>
</linearGradient>
<radialGradient id="paint24_radial_343_871" cx="0" cy="0" r="1" gradientUnits="userSpaceOnUse" gradientTransform="translate(15.5186 5.50751) rotate(125.838) scale(0.520397 0.463955)">
<stop offset="0.00558659" stop-color="#433437"/>
<stop offset="1" stop-color="#3B2838"/>
</radialGradient>
<radialGradient id="paint25_radial_343_871" cx="0" cy="0" r="1" gradientUnits="userSpaceOnUse" gradientTransform="translate(15.5474 5.53442) rotate(137.643) scale(0.269595 0.237178)">
<stop stop-color="#5C5051"/>
<stop offset="1" stop-color="#5C5051" stop-opacity="0"/>
</radialGradient>
<linearGradient id="paint26_linear_343_871" x1="15.3335" y1="5.33363" x2="15.0757" y2="5.16957" gradientUnits="userSpaceOnUse">
<stop stop-color="#5C5051" stop-opacity="0"/>
<stop offset="1" stop-color="#5C5051"/>
</linearGradient>
<radialGradient id="paint27_radial_343_871" cx="0" cy="0" r="1" gradientUnits="userSpaceOnUse" gradientTransform="translate(12.6458 6.70307) rotate(-90) scale(0.867188 1.26563)">
<stop stop-color="#FF8E64"/>
<stop offset="1" stop-color="#FF8E64" stop-opacity="0"/>
</radialGradient>
<linearGradient id="paint28_linear_343_871" x1="11.9962" y1="6.87885" x2="11.9962" y2="6.56244" gradientUnits="userSpaceOnUse">
<stop stop-color="#C1411B"/>
<stop offset="0.787037" stop-color="#EA6038" stop-opacity="0"/>
</linearGradient>
<radialGradient id="paint29_radial_343_871" cx="0" cy="0" r="1" gradientUnits="userSpaceOnUse" gradientTransform="translate(10.9348 7.19525) rotate(-80.3077) scale(1.11371 0.236196)">
<stop offset="0.166103" stop-color="#FF8E64"/>
<stop offset="1" stop-color="#FF8E64" stop-opacity="0"/>
</radialGradient>
<radialGradient id="paint30_radial_343_871" cx="0" cy="0" r="1" gradientUnits="userSpaceOnUse" gradientTransform="translate(4.55876 15.223) rotate(-1.49693) scale(6.87119 15.6318)">
<stop stop-color="#E7DDF9"/>
<stop offset="0.619715" stop-color="#E7DDF9" stop-opacity="0"/>
</radialGradient>
</defs>
</svg>
