<svg width="24" height="24" viewBox="0 0 24 24" fill="none" xmlns="http://www.w3.org/2000/svg">
<g filter="url(#filter0_i_343_987)">
<path d="M22.5112 11.8719H1.51123L2.80123 8.63937C2.92873 8.31687 3.23623 8.10687 3.58123 8.10687H20.4412C20.7862 8.10687 21.0937 8.31687 21.2212 8.63937L22.5112 11.8719Z" fill="url(#paint0_linear_343_987)"/>
<path d="M22.5112 11.8719H1.51123L2.80123 8.63937C2.92873 8.31687 3.23623 8.10687 3.58123 8.10687H20.4412C20.7862 8.10687 21.0937 8.31687 21.2212 8.63937L22.5112 11.8719Z" fill="url(#paint1_linear_343_987)"/>
</g>
<g filter="url(#filter1_ii_343_987)">
<path d="M13.1438 2.36188H15.1613C15.2813 2.36188 15.3788 2.45938 15.3788 2.57938V3.64438C15.3788 3.76438 15.2813 3.86188 15.1613 3.86188H13.6013C13.3538 3.86188 13.1513 3.65938 13.1513 3.41188V2.36188H13.1438Z" fill="url(#paint2_linear_343_987)"/>
</g>
<g filter="url(#filter2_f_343_987)">
<rect x="13.2136" y="3.01083" width="1.23208" height="0.172852" rx="0.0864258" fill="#51834C"/>
</g>
<g filter="url(#filter3_i_343_987)">
<path d="M14.3362 3.11188H12.0112V1.61188H14.3362C14.5012 1.61188 14.6362 1.74688 14.6362 1.91188V2.80438C14.6437 2.97688 14.5087 3.11188 14.3362 3.11188Z" fill="#4AD680"/>
<path d="M14.3362 3.11188H12.0112V1.61188H14.3362C14.5012 1.61188 14.6362 1.74688 14.6362 1.91188V2.80438C14.6437 2.97688 14.5087 3.11188 14.3362 3.11188Z" fill="url(#paint3_linear_343_987)"/>
</g>
<path d="M12.0413 4.98688H11.9963C11.8013 4.98688 11.6438 4.82938 11.6438 4.63438V1.71688C11.6438 1.52188 11.8013 1.36438 11.9963 1.36438H12.0413C12.2363 1.36438 12.3938 1.52188 12.3938 1.71688V4.63438C12.3938 4.82938 12.2363 4.98688 12.0413 4.98688Z" fill="url(#paint4_radial_343_987)"/>
<path d="M12.0413 4.98688H11.9963C11.8013 4.98688 11.6438 4.82938 11.6438 4.63438V1.71688C11.6438 1.52188 11.8013 1.36438 11.9963 1.36438H12.0413C12.2363 1.36438 12.3938 1.52188 12.3938 1.71688V4.63438C12.3938 4.82938 12.2363 4.98688 12.0413 4.98688Z" fill="url(#paint5_radial_343_987)"/>
<path d="M6.7876 11.8644H1.51123V22.3644H6.7876V11.8644Z" fill="url(#paint6_linear_343_987)"/>
<path d="M6.7876 11.8644H1.51123V22.3644H6.7876V11.8644Z" fill="url(#paint7_linear_343_987)"/>
<path d="M6.7876 11.8644H1.51123V22.3644H6.7876V11.8644Z" fill="url(#paint8_linear_343_987)"/>
<path d="M6.7876 11.8644H1.51123V22.3644H6.7876V11.8644Z" fill="url(#paint9_linear_343_987)"/>
<path d="M17.2612 11.8644H22.5112V22.3644H17.2612V11.8644Z" fill="url(#paint10_linear_343_987)"/>
<path d="M17.2612 11.8644H22.5112V22.3644H17.2612V11.8644Z" fill="url(#paint11_linear_343_987)"/>
<path d="M17.2612 11.8644H22.5112V22.3644H17.2612V11.8644Z" fill="url(#paint12_linear_343_987)"/>
<path d="M17.2612 11.8644H22.5112V22.3644H17.2612V11.8644Z" fill="url(#paint13_radial_343_987)"/>
<g filter="url(#filter4_f_343_987)">
<rect x="5.27661" y="12" width="2.02738" height="1.05143" fill="#8E5745"/>
</g>
<path d="M17.0513 10.3344L12.4388 5.78937C12.2063 5.55687 11.8313 5.55687 11.5988 5.78937L6.9863 10.3344C6.8513 10.4694 6.7688 10.6569 6.7688 10.8444V11.7444V12.0294V22.3719H17.2688V12.0219V11.7369V10.8369C17.2613 10.6494 17.1863 10.4694 17.0513 10.3344Z" fill="url(#paint14_linear_343_987)"/>
<path d="M17.0513 10.3344L12.4388 5.78937C12.2063 5.55687 11.8313 5.55687 11.5988 5.78937L6.9863 10.3344C6.8513 10.4694 6.7688 10.6569 6.7688 10.8444V11.7444V12.0294V22.3719H17.2688V12.0219V11.7369V10.8369C17.2613 10.6494 17.1863 10.4694 17.0513 10.3344Z" fill="url(#paint15_linear_343_987)"/>
<path d="M17.0513 10.3344L12.4388 5.78937C12.2063 5.55687 11.8313 5.55687 11.5988 5.78937L6.9863 10.3344C6.8513 10.4694 6.7688 10.6569 6.7688 10.8444V11.7444V12.0294V22.3719H17.2688V12.0219V11.7369V10.8369C17.2613 10.6494 17.1863 10.4694 17.0513 10.3344Z" fill="url(#paint16_linear_343_987)"/>
<path d="M17.0513 10.3344L12.4388 5.78937C12.2063 5.55687 11.8313 5.55687 11.5988 5.78937L6.9863 10.3344C6.8513 10.4694 6.7688 10.6569 6.7688 10.8444V11.7444V12.0294V22.3719H17.2688V12.0219V11.7369V10.8369C17.2613 10.6494 17.1863 10.4694 17.0513 10.3344Z" fill="url(#paint17_linear_343_987)"/>
<path d="M17.0513 10.3344L12.4388 5.78937C12.2063 5.55687 11.8313 5.55687 11.5988 5.78937L6.9863 10.3344C6.8513 10.4694 6.7688 10.6569 6.7688 10.8444V11.7444V12.0294V22.3719H17.2688V12.0219V11.7369V10.8369C17.2613 10.6494 17.1863 10.4694 17.0513 10.3344Z" fill="url(#paint18_linear_343_987)"/>
<path d="M17.0513 10.3344L12.4388 5.78937C12.2063 5.55687 11.8313 5.55687 11.5988 5.78937L6.9863 10.3344C6.8513 10.4694 6.7688 10.6569 6.7688 10.8444V11.7444V12.0294V22.3719H17.2688V12.0219V11.7369V10.8369C17.2613 10.6494 17.1863 10.4694 17.0513 10.3344Z" fill="url(#paint19_radial_343_987)"/>
<path d="M17.0513 10.3344L12.4388 5.78937C12.2063 5.55687 11.8313 5.55687 11.5988 5.78937L6.9863 10.3344C6.8513 10.4694 6.7688 10.6569 6.7688 10.8444V11.7444V12.0294V22.3719H17.2688V12.0219V11.7369V10.8369C17.2613 10.6494 17.1863 10.4694 17.0513 10.3344Z" fill="url(#paint20_radial_343_987)"/>
<g filter="url(#filter5_i_343_987)">
<path d="M19.3012 15.6144H18.2212C18.1087 15.6144 18.0112 15.5169 18.0112 15.4044V13.5744C18.0112 13.4619 18.1087 13.3644 18.2212 13.3644H19.3012C19.4137 13.3644 19.5112 13.4619 19.5112 13.5744V15.4044C19.5112 15.5244 19.4212 15.6144 19.3012 15.6144Z" fill="url(#paint21_linear_343_987)"/>
<path d="M19.3012 15.6144H18.2212C18.1087 15.6144 18.0112 15.5169 18.0112 15.4044V13.5744C18.0112 13.4619 18.1087 13.3644 18.2212 13.3644H19.3012C19.4137 13.3644 19.5112 13.4619 19.5112 13.5744V15.4044C19.5112 15.5244 19.4212 15.6144 19.3012 15.6144Z" fill="url(#paint22_linear_343_987)"/>
</g>
<g filter="url(#filter6_i_343_987)">
<path d="M21.5512 15.6144H20.4712C20.3587 15.6144 20.2612 15.5169 20.2612 15.4044V13.5744C20.2612 13.4619 20.3587 13.3644 20.4712 13.3644H21.5512C21.6637 13.3644 21.7612 13.4619 21.7612 13.5744V15.4044C21.7612 15.5244 21.6712 15.6144 21.5512 15.6144Z" fill="url(#paint23_linear_343_987)"/>
<path d="M21.5512 15.6144H20.4712C20.3587 15.6144 20.2612 15.5169 20.2612 15.4044V13.5744C20.2612 13.4619 20.3587 13.3644 20.4712 13.3644H21.5512C21.6637 13.3644 21.7612 13.4619 21.7612 13.5744V15.4044C21.7612 15.5244 21.6712 15.6144 21.5512 15.6144Z" fill="url(#paint24_linear_343_987)"/>
</g>
<g filter="url(#filter7_i_343_987)">
<path d="M19.3012 18.6144H18.2212C18.1087 18.6144 18.0112 18.5169 18.0112 18.4044V16.5744C18.0112 16.4619 18.1087 16.3644 18.2212 16.3644H19.3012C19.4137 16.3644 19.5112 16.4619 19.5112 16.5744V18.4044C19.5112 18.5244 19.4212 18.6144 19.3012 18.6144Z" fill="url(#paint25_linear_343_987)"/>
<path d="M19.3012 18.6144H18.2212C18.1087 18.6144 18.0112 18.5169 18.0112 18.4044V16.5744C18.0112 16.4619 18.1087 16.3644 18.2212 16.3644H19.3012C19.4137 16.3644 19.5112 16.4619 19.5112 16.5744V18.4044C19.5112 18.5244 19.4212 18.6144 19.3012 18.6144Z" fill="url(#paint26_linear_343_987)"/>
</g>
<g filter="url(#filter8_i_343_987)">
<path d="M21.5512 18.6144H20.4712C20.3587 18.6144 20.2612 18.5169 20.2612 18.4044V16.5744C20.2612 16.4619 20.3587 16.3644 20.4712 16.3644H21.5512C21.6637 16.3644 21.7612 16.4619 21.7612 16.5744V18.4044C21.7612 18.5244 21.6712 18.6144 21.5512 18.6144Z" fill="url(#paint27_linear_343_987)"/>
<path d="M21.5512 18.6144H20.4712C20.3587 18.6144 20.2612 18.5169 20.2612 18.4044V16.5744C20.2612 16.4619 20.3587 16.3644 20.4712 16.3644H21.5512C21.6637 16.3644 21.7612 16.4619 21.7612 16.5744V18.4044C21.7612 18.5244 21.6712 18.6144 21.5512 18.6144Z" fill="url(#paint28_linear_343_987)"/>
</g>
<g filter="url(#filter9_i_343_987)">
<path d="M3.56612 15.6144H2.48612C2.37362 15.6144 2.27612 15.5169 2.27612 15.4044V13.5744C2.27612 13.4619 2.37362 13.3644 2.48612 13.3644H3.56612C3.67862 13.3644 3.77612 13.4619 3.77612 13.5744V15.4044C3.77612 15.5244 3.68612 15.6144 3.56612 15.6144Z" fill="url(#paint29_linear_343_987)"/>
<path d="M3.56612 15.6144H2.48612C2.37362 15.6144 2.27612 15.5169 2.27612 15.4044V13.5744C2.27612 13.4619 2.37362 13.3644 2.48612 13.3644H3.56612C3.67862 13.3644 3.77612 13.4619 3.77612 13.5744V15.4044C3.77612 15.5244 3.68612 15.6144 3.56612 15.6144Z" fill="url(#paint30_linear_343_987)"/>
</g>
<g filter="url(#filter10_i_343_987)">
<path d="M5.81612 15.6144H4.73612C4.62362 15.6144 4.52612 15.5169 4.52612 15.4044V13.5744C4.52612 13.4619 4.62362 13.3644 4.73612 13.3644H5.81612C5.92862 13.3644 6.02612 13.4619 6.02612 13.5744V15.4044C6.02612 15.5244 5.93612 15.6144 5.81612 15.6144Z" fill="url(#paint31_linear_343_987)"/>
<path d="M5.81612 15.6144H4.73612C4.62362 15.6144 4.52612 15.5169 4.52612 15.4044V13.5744C4.52612 13.4619 4.62362 13.3644 4.73612 13.3644H5.81612C5.92862 13.3644 6.02612 13.4619 6.02612 13.5744V15.4044C6.02612 15.5244 5.93612 15.6144 5.81612 15.6144Z" fill="url(#paint32_linear_343_987)"/>
</g>
<g filter="url(#filter11_i_343_987)">
<path d="M3.56612 18.6144H2.48612C2.37362 18.6144 2.27612 18.5169 2.27612 18.4044V16.5744C2.27612 16.4619 2.37362 16.3644 2.48612 16.3644H3.56612C3.67862 16.3644 3.77612 16.4619 3.77612 16.5744V18.4044C3.77612 18.5244 3.68612 18.6144 3.56612 18.6144Z" fill="url(#paint33_linear_343_987)"/>
<path d="M3.56612 18.6144H2.48612C2.37362 18.6144 2.27612 18.5169 2.27612 18.4044V16.5744C2.27612 16.4619 2.37362 16.3644 2.48612 16.3644H3.56612C3.67862 16.3644 3.77612 16.4619 3.77612 16.5744V18.4044C3.77612 18.5244 3.68612 18.6144 3.56612 18.6144Z" fill="url(#paint34_linear_343_987)"/>
</g>
<g filter="url(#filter12_i_343_987)">
<path d="M5.81612 18.6144H4.73612C4.62362 18.6144 4.52612 18.5169 4.52612 18.4044V16.5744C4.52612 16.4619 4.62362 16.3644 4.73612 16.3644H5.81612C5.92862 16.3644 6.02612 16.4619 6.02612 16.5744V18.4044C6.02612 18.5244 5.93612 18.6144 5.81612 18.6144Z" fill="url(#paint35_linear_343_987)"/>
<path d="M5.81612 18.6144H4.73612C4.62362 18.6144 4.52612 18.5169 4.52612 18.4044V16.5744C4.52612 16.4619 4.62362 16.3644 4.73612 16.3644H5.81612C5.92862 16.3644 6.02612 16.4619 6.02612 16.5744V18.4044C6.02612 18.5244 5.93612 18.6144 5.81612 18.6144Z" fill="url(#paint36_linear_343_987)"/>
</g>
<g filter="url(#filter13_ii_343_987)">
<path d="M12.0112 13.3644C13.2539 13.3644 14.2612 12.357 14.2612 11.1144C14.2612 9.87174 13.2539 8.86438 12.0112 8.86438C10.7686 8.86438 9.76123 9.87174 9.76123 11.1144C9.76123 12.357 10.7686 13.3644 12.0112 13.3644Z" fill="#EDDEF1"/>
</g>
<path d="M12.0112 11.4219C11.8012 11.4219 11.6362 11.2569 11.6362 11.0469V9.98938C11.6362 9.77938 11.8012 9.61438 12.0112 9.61438C12.2212 9.61438 12.3862 9.77938 12.3862 9.98938V11.0469C12.3862 11.2569 12.2137 11.4219 12.0112 11.4219Z" fill="url(#paint37_radial_343_987)"/>
<path d="M12.0112 11.4219C11.8012 11.4219 11.6362 11.2569 11.6362 11.0469V9.98938C11.6362 9.77938 11.8012 9.61438 12.0112 9.61438C12.2212 9.61438 12.3862 9.77938 12.3862 9.98938V11.0469C12.3862 11.2569 12.2137 11.4219 12.0112 11.4219Z" fill="url(#paint38_radial_343_987)"/>
<path d="M13.1212 12.6144C13.0237 12.6144 12.9262 12.5769 12.8587 12.5019L11.7487 11.3919C11.5987 11.2419 11.5987 11.0094 11.7487 10.8594C11.8987 10.7094 12.1312 10.7094 12.2812 10.8594L13.3912 11.9694C13.5412 12.1194 13.5412 12.3519 13.3912 12.5019C13.3087 12.5769 13.2187 12.6144 13.1212 12.6144Z" fill="url(#paint39_linear_343_987)"/>
<g filter="url(#filter14_ii_343_987)">
<path d="M18.0112 10.4693C18.0112 10.2443 17.9212 10.0343 17.7637 9.87684L12.4912 4.60435C12.2287 4.34185 11.7937 4.34185 11.5312 4.60435L6.25873 9.87684C6.10123 10.0343 6.01123 10.2518 6.01123 10.4693C6.01123 10.9347 6.01123 11.4158 6.01123 11.8718C6.01123 12.0818 6.17623 12.2468 6.38623 12.2468C6.59623 12.2468 6.76123 12.0818 6.76123 11.8718C6.76123 11.568 6.76123 11.2399 6.76123 10.9268C6.76123 10.7318 6.83623 10.5443 6.97873 10.4093L11.5912 5.79685C11.8237 5.56435 12.1987 5.56435 12.4312 5.79685L17.0437 10.4093C17.1787 10.5443 17.2612 10.7318 17.2612 10.9268C17.2612 11.2399 17.2612 11.568 17.2612 11.8718C17.2612 12.0818 17.4262 12.2468 17.6362 12.2468C17.8462 12.2468 18.0112 12.0818 18.0112 11.8718C18.0112 11.4077 18.0087 10.9363 18.0112 10.4693Z" fill="url(#paint40_linear_343_987)"/>
</g>
<path d="M18.0112 10.4693C18.0112 10.2443 17.9212 10.0343 17.7637 9.87684L12.4912 4.60435C12.2287 4.34185 11.7937 4.34185 11.5312 4.60435L6.25873 9.87684C6.10123 10.0343 6.01123 10.2518 6.01123 10.4693V11.8343H6.01873C6.01873 11.8493 6.01123 11.8568 6.01123 11.8718C6.01123 12.0818 6.17623 12.2468 6.38623 12.2468C6.59623 12.2468 6.76123 12.0818 6.76123 11.8718C6.76123 11.8568 6.75373 11.8493 6.75373 11.8343H6.76123V10.9268C6.76123 10.7318 6.83623 10.5443 6.97873 10.4093L11.5912 5.79685C11.8237 5.56435 12.1987 5.56435 12.4312 5.79685L17.0437 10.4093C17.1787 10.5443 17.2612 10.7318 17.2612 10.9268C17.2612 11.2399 17.2612 11.568 17.2612 11.8718C17.2612 12.0818 17.4262 12.2468 17.6362 12.2468C17.8462 12.2468 18.0112 12.0818 18.0112 11.8718C18.0112 11.4077 18.0087 10.9363 18.0112 10.4693Z" fill="url(#paint41_linear_343_987)"/>
<path d="M18.0112 10.4693C18.0112 10.2443 17.9212 10.0343 17.7637 9.87684L12.4912 4.60435C12.2287 4.34185 11.7937 4.34185 11.5312 4.60435L6.25873 9.87684C6.10123 10.0343 6.01123 10.2518 6.01123 10.4693V11.8343H6.01873C6.01873 11.8493 6.01123 11.8568 6.01123 11.8718C6.01123 12.0818 6.17623 12.2468 6.38623 12.2468C6.59623 12.2468 6.76123 12.0818 6.76123 11.8718C6.76123 11.8568 6.75373 11.8493 6.75373 11.8343H6.76123V10.9268C6.76123 10.7318 6.83623 10.5443 6.97873 10.4093L11.5912 5.79685C11.8237 5.56435 12.1987 5.56435 12.4312 5.79685L17.0437 10.4093C17.1787 10.5443 17.2612 10.7318 17.2612 10.9268C17.2612 11.2399 17.2612 11.568 17.2612 11.8718C17.2612 12.0818 17.4262 12.2468 17.6362 12.2468C17.8462 12.2468 18.0112 12.0818 18.0112 11.8718C18.0112 11.4077 18.0087 10.9363 18.0112 10.4693Z" fill="url(#paint42_linear_343_987)"/>
<path d="M18.0112 10.4693C18.0112 10.2443 17.9212 10.0343 17.7637 9.87684L12.4912 4.60435C12.2287 4.34185 11.7937 4.34185 11.5312 4.60435L6.25873 9.87684C6.10123 10.0343 6.01123 10.2518 6.01123 10.4693V11.8343H6.01873C6.01873 11.8493 6.01123 11.8568 6.01123 11.8718C6.01123 12.0818 6.17623 12.2468 6.38623 12.2468C6.59623 12.2468 6.76123 12.0818 6.76123 11.8718C6.76123 11.8568 6.75373 11.8493 6.75373 11.8343H6.76123V10.9268C6.76123 10.7318 6.83623 10.5443 6.97873 10.4093L11.5912 5.79685C11.8237 5.56435 12.1987 5.56435 12.4312 5.79685L17.0437 10.4093C17.1787 10.5443 17.2612 10.7318 17.2612 10.9268C17.2612 11.2399 17.2612 11.568 17.2612 11.8718C17.2612 12.0818 17.4262 12.2468 17.6362 12.2468C17.8462 12.2468 18.0112 12.0818 18.0112 11.8718C18.0112 11.4077 18.0087 10.9363 18.0112 10.4693Z" fill="url(#paint43_radial_343_987)"/>
<g filter="url(#filter15_i_343_987)">
<path d="M14.2687 22.3644H9.7312V18.3894C9.7312 18.0969 9.9637 17.8644 10.2562 17.8644H13.7437C14.0362 17.8644 14.2687 18.0969 14.2687 18.3894V22.3644Z" fill="url(#paint44_linear_343_987)"/>
<path d="M14.2687 22.3644H9.7312V18.3894C9.7312 18.0969 9.9637 17.8644 10.2562 17.8644H13.7437C14.0362 17.8644 14.2687 18.0969 14.2687 18.3894V22.3644Z" fill="url(#paint45_linear_343_987)"/>
</g>
<g filter="url(#filter16_f_343_987)">
<path d="M12.0369 11.131L13.2022 12.3034" stroke="url(#paint46_linear_343_987)" stroke-width="0.25" stroke-linecap="round"/>
</g>
<g filter="url(#filter17_f_343_987)">
<path d="M12.2295 4.75507L17.5422 10.0834" stroke="url(#paint47_linear_343_987)" stroke-width="0.4" stroke-linecap="round"/>
</g>
<defs>
<filter id="filter0_i_343_987" x="1.26123" y="8.10687" width="21.25" height="4.01501" filterUnits="userSpaceOnUse" color-interpolation-filters="sRGB">
<feFlood flood-opacity="0" result="BackgroundImageFix"/>
<feBlend mode="normal" in="SourceGraphic" in2="BackgroundImageFix" result="shape"/>
<feColorMatrix in="SourceAlpha" type="matrix" values="0 0 0 0 0 0 0 0 0 0 0 0 0 0 0 0 0 0 127 0" result="hardAlpha"/>
<feOffset dx="-0.25" dy="0.25"/>
<feGaussianBlur stdDeviation="0.25"/>
<feComposite in2="hardAlpha" operator="arithmetic" k2="-1" k3="1"/>
<feColorMatrix type="matrix" values="0 0 0 0 0.639216 0 0 0 0 0.435294 0 0 0 0 0.364706 0 0 0 1 0"/>
<feBlend mode="normal" in2="shape" result="effect1_innerShadow_343_987"/>
</filter>
<filter id="filter1_ii_343_987" x="12.9938" y="2.21188" width="2.53511" height="1.8" filterUnits="userSpaceOnUse" color-interpolation-filters="sRGB">
<feFlood flood-opacity="0" result="BackgroundImageFix"/>
<feBlend mode="normal" in="SourceGraphic" in2="BackgroundImageFix" result="shape"/>
<feColorMatrix in="SourceAlpha" type="matrix" values="0 0 0 0 0 0 0 0 0 0 0 0 0 0 0 0 0 0 127 0" result="hardAlpha"/>
<feOffset dx="-0.15" dy="0.15"/>
<feGaussianBlur stdDeviation="0.125"/>
<feComposite in2="hardAlpha" operator="arithmetic" k2="-1" k3="1"/>
<feColorMatrix type="matrix" values="0 0 0 0 0.843137 0 0 0 0 1 0 0 0 0 0.419608 0 0 0 1 0"/>
<feBlend mode="normal" in2="shape" result="effect1_innerShadow_343_987"/>
<feColorMatrix in="SourceAlpha" type="matrix" values="0 0 0 0 0 0 0 0 0 0 0 0 0 0 0 0 0 0 127 0" result="hardAlpha"/>
<feOffset dx="0.15" dy="-0.15"/>
<feGaussianBlur stdDeviation="0.15"/>
<feComposite in2="hardAlpha" operator="arithmetic" k2="-1" k3="1"/>
<feColorMatrix type="matrix" values="0 0 0 0 0.258824 0 0 0 0 0.447059 0 0 0 0 0.294118 0 0 0 1 0"/>
<feBlend mode="normal" in2="effect1_innerShadow_343_987" result="effect2_innerShadow_343_987"/>
</filter>
<filter id="filter2_f_343_987" x="13.1136" y="2.91083" width="1.43218" height="0.372852" filterUnits="userSpaceOnUse" color-interpolation-filters="sRGB">
<feFlood flood-opacity="0" result="BackgroundImageFix"/>
<feBlend mode="normal" in="SourceGraphic" in2="BackgroundImageFix" result="shape"/>
<feGaussianBlur stdDeviation="0.05" result="effect1_foregroundBlur_343_987"/>
</filter>
<filter id="filter3_i_343_987" x="11.8612" y="1.61188" width="2.77524" height="1.65" filterUnits="userSpaceOnUse" color-interpolation-filters="sRGB">
<feFlood flood-opacity="0" result="BackgroundImageFix"/>
<feBlend mode="normal" in="SourceGraphic" in2="BackgroundImageFix" result="shape"/>
<feColorMatrix in="SourceAlpha" type="matrix" values="0 0 0 0 0 0 0 0 0 0 0 0 0 0 0 0 0 0 127 0" result="hardAlpha"/>
<feOffset dx="-0.15" dy="0.15"/>
<feGaussianBlur stdDeviation="0.125"/>
<feComposite in2="hardAlpha" operator="arithmetic" k2="-1" k3="1"/>
<feColorMatrix type="matrix" values="0 0 0 0 0.407843 0 0 0 0 0.937255 0 0 0 0 0.603922 0 0 0 1 0"/>
<feBlend mode="normal" in2="shape" result="effect1_innerShadow_343_987"/>
</filter>
<filter id="filter4_f_343_987" x="3.27661" y="10" width="6.02734" height="5.05142" filterUnits="userSpaceOnUse" color-interpolation-filters="sRGB">
<feFlood flood-opacity="0" result="BackgroundImageFix"/>
<feBlend mode="normal" in="SourceGraphic" in2="BackgroundImageFix" result="shape"/>
<feGaussianBlur stdDeviation="1" result="effect1_foregroundBlur_343_987"/>
</filter>
<filter id="filter5_i_343_987" x="17.8612" y="13.3644" width="1.65" height="2.3" filterUnits="userSpaceOnUse" color-interpolation-filters="sRGB">
<feFlood flood-opacity="0" result="BackgroundImageFix"/>
<feBlend mode="normal" in="SourceGraphic" in2="BackgroundImageFix" result="shape"/>
<feColorMatrix in="SourceAlpha" type="matrix" values="0 0 0 0 0 0 0 0 0 0 0 0 0 0 0 0 0 0 127 0" result="hardAlpha"/>
<feOffset dx="-0.15" dy="0.05"/>
<feGaussianBlur stdDeviation="0.15"/>
<feComposite in2="hardAlpha" operator="arithmetic" k2="-1" k3="1"/>
<feColorMatrix type="matrix" values="0 0 0 0 0.0705882 0 0 0 0 0.466667 0 0 0 0 0.815686 0 0 0 1 0"/>
<feBlend mode="normal" in2="shape" result="effect1_innerShadow_343_987"/>
</filter>
<filter id="filter6_i_343_987" x="20.1112" y="13.3644" width="1.65" height="2.3" filterUnits="userSpaceOnUse" color-interpolation-filters="sRGB">
<feFlood flood-opacity="0" result="BackgroundImageFix"/>
<feBlend mode="normal" in="SourceGraphic" in2="BackgroundImageFix" result="shape"/>
<feColorMatrix in="SourceAlpha" type="matrix" values="0 0 0 0 0 0 0 0 0 0 0 0 0 0 0 0 0 0 127 0" result="hardAlpha"/>
<feOffset dx="-0.15" dy="0.05"/>
<feGaussianBlur stdDeviation="0.15"/>
<feComposite in2="hardAlpha" operator="arithmetic" k2="-1" k3="1"/>
<feColorMatrix type="matrix" values="0 0 0 0 0.0705882 0 0 0 0 0.466667 0 0 0 0 0.815686 0 0 0 1 0"/>
<feBlend mode="normal" in2="shape" result="effect1_innerShadow_343_987"/>
</filter>
<filter id="filter7_i_343_987" x="17.8612" y="16.3644" width="1.65" height="2.3" filterUnits="userSpaceOnUse" color-interpolation-filters="sRGB">
<feFlood flood-opacity="0" result="BackgroundImageFix"/>
<feBlend mode="normal" in="SourceGraphic" in2="BackgroundImageFix" result="shape"/>
<feColorMatrix in="SourceAlpha" type="matrix" values="0 0 0 0 0 0 0 0 0 0 0 0 0 0 0 0 0 0 127 0" result="hardAlpha"/>
<feOffset dx="-0.15" dy="0.05"/>
<feGaussianBlur stdDeviation="0.15"/>
<feComposite in2="hardAlpha" operator="arithmetic" k2="-1" k3="1"/>
<feColorMatrix type="matrix" values="0 0 0 0 0.0705882 0 0 0 0 0.466667 0 0 0 0 0.815686 0 0 0 1 0"/>
<feBlend mode="normal" in2="shape" result="effect1_innerShadow_343_987"/>
</filter>
<filter id="filter8_i_343_987" x="20.1112" y="16.3644" width="1.65" height="2.3" filterUnits="userSpaceOnUse" color-interpolation-filters="sRGB">
<feFlood flood-opacity="0" result="BackgroundImageFix"/>
<feBlend mode="normal" in="SourceGraphic" in2="BackgroundImageFix" result="shape"/>
<feColorMatrix in="SourceAlpha" type="matrix" values="0 0 0 0 0 0 0 0 0 0 0 0 0 0 0 0 0 0 127 0" result="hardAlpha"/>
<feOffset dx="-0.15" dy="0.05"/>
<feGaussianBlur stdDeviation="0.15"/>
<feComposite in2="hardAlpha" operator="arithmetic" k2="-1" k3="1"/>
<feColorMatrix type="matrix" values="0 0 0 0 0.0705882 0 0 0 0 0.466667 0 0 0 0 0.815686 0 0 0 1 0"/>
<feBlend mode="normal" in2="shape" result="effect1_innerShadow_343_987"/>
</filter>
<filter id="filter9_i_343_987" x="2.12612" y="13.3644" width="1.65" height="2.3" filterUnits="userSpaceOnUse" color-interpolation-filters="sRGB">
<feFlood flood-opacity="0" result="BackgroundImageFix"/>
<feBlend mode="normal" in="SourceGraphic" in2="BackgroundImageFix" result="shape"/>
<feColorMatrix in="SourceAlpha" type="matrix" values="0 0 0 0 0 0 0 0 0 0 0 0 0 0 0 0 0 0 127 0" result="hardAlpha"/>
<feOffset dx="-0.15" dy="0.05"/>
<feGaussianBlur stdDeviation="0.15"/>
<feComposite in2="hardAlpha" operator="arithmetic" k2="-1" k3="1"/>
<feColorMatrix type="matrix" values="0 0 0 0 0.0705882 0 0 0 0 0.466667 0 0 0 0 0.815686 0 0 0 1 0"/>
<feBlend mode="normal" in2="shape" result="effect1_innerShadow_343_987"/>
</filter>
<filter id="filter10_i_343_987" x="4.37612" y="13.3644" width="1.65" height="2.3" filterUnits="userSpaceOnUse" color-interpolation-filters="sRGB">
<feFlood flood-opacity="0" result="BackgroundImageFix"/>
<feBlend mode="normal" in="SourceGraphic" in2="BackgroundImageFix" result="shape"/>
<feColorMatrix in="SourceAlpha" type="matrix" values="0 0 0 0 0 0 0 0 0 0 0 0 0 0 0 0 0 0 127 0" result="hardAlpha"/>
<feOffset dx="-0.15" dy="0.05"/>
<feGaussianBlur stdDeviation="0.15"/>
<feComposite in2="hardAlpha" operator="arithmetic" k2="-1" k3="1"/>
<feColorMatrix type="matrix" values="0 0 0 0 0.0705882 0 0 0 0 0.466667 0 0 0 0 0.815686 0 0 0 1 0"/>
<feBlend mode="normal" in2="shape" result="effect1_innerShadow_343_987"/>
</filter>
<filter id="filter11_i_343_987" x="2.12612" y="16.3644" width="1.65" height="2.3" filterUnits="userSpaceOnUse" color-interpolation-filters="sRGB">
<feFlood flood-opacity="0" result="BackgroundImageFix"/>
<feBlend mode="normal" in="SourceGraphic" in2="BackgroundImageFix" result="shape"/>
<feColorMatrix in="SourceAlpha" type="matrix" values="0 0 0 0 0 0 0 0 0 0 0 0 0 0 0 0 0 0 127 0" result="hardAlpha"/>
<feOffset dx="-0.15" dy="0.05"/>
<feGaussianBlur stdDeviation="0.15"/>
<feComposite in2="hardAlpha" operator="arithmetic" k2="-1" k3="1"/>
<feColorMatrix type="matrix" values="0 0 0 0 0.0705882 0 0 0 0 0.466667 0 0 0 0 0.815686 0 0 0 1 0"/>
<feBlend mode="normal" in2="shape" result="effect1_innerShadow_343_987"/>
</filter>
<filter id="filter12_i_343_987" x="4.37612" y="16.3644" width="1.65" height="2.3" filterUnits="userSpaceOnUse" color-interpolation-filters="sRGB">
<feFlood flood-opacity="0" result="BackgroundImageFix"/>
<feBlend mode="normal" in="SourceGraphic" in2="BackgroundImageFix" result="shape"/>
<feColorMatrix in="SourceAlpha" type="matrix" values="0 0 0 0 0 0 0 0 0 0 0 0 0 0 0 0 0 0 127 0" result="hardAlpha"/>
<feOffset dx="-0.15" dy="0.05"/>
<feGaussianBlur stdDeviation="0.15"/>
<feComposite in2="hardAlpha" operator="arithmetic" k2="-1" k3="1"/>
<feColorMatrix type="matrix" values="0 0 0 0 0.0705882 0 0 0 0 0.466667 0 0 0 0 0.815686 0 0 0 1 0"/>
<feBlend mode="normal" in2="shape" result="effect1_innerShadow_343_987"/>
</filter>
<filter id="filter13_ii_343_987" x="9.46123" y="8.56438" width="5.1" height="5.1" filterUnits="userSpaceOnUse" color-interpolation-filters="sRGB">
<feFlood flood-opacity="0" result="BackgroundImageFix"/>
<feBlend mode="normal" in="SourceGraphic" in2="BackgroundImageFix" result="shape"/>
<feColorMatrix in="SourceAlpha" type="matrix" values="0 0 0 0 0 0 0 0 0 0 0 0 0 0 0 0 0 0 127 0" result="hardAlpha"/>
<feOffset dx="0.3" dy="-0.3"/>
<feGaussianBlur stdDeviation="0.5"/>
<feComposite in2="hardAlpha" operator="arithmetic" k2="-1" k3="1"/>
<feColorMatrix type="matrix" values="0 0 0 0 1 0 0 0 0 1 0 0 0 0 1 0 0 0 1 0"/>
<feBlend mode="normal" in2="shape" result="effect1_innerShadow_343_987"/>
<feColorMatrix in="SourceAlpha" type="matrix" values="0 0 0 0 0 0 0 0 0 0 0 0 0 0 0 0 0 0 127 0" result="hardAlpha"/>
<feOffset dx="-0.3" dy="0.3"/>
<feGaussianBlur stdDeviation="0.5"/>
<feComposite in2="hardAlpha" operator="arithmetic" k2="-1" k3="1"/>
<feColorMatrix type="matrix" values="0 0 0 0 0.694118 0 0 0 0 0.592157 0 0 0 0 0.733333 0 0 0 1 0"/>
<feBlend mode="normal" in2="effect1_innerShadow_343_987" result="effect2_innerShadow_343_987"/>
</filter>
<filter id="filter14_ii_343_987" x="5.81123" y="4.15747" width="12.5" height="8.08939" filterUnits="userSpaceOnUse" color-interpolation-filters="sRGB">
<feFlood flood-opacity="0" result="BackgroundImageFix"/>
<feBlend mode="normal" in="SourceGraphic" in2="BackgroundImageFix" result="shape"/>
<feColorMatrix in="SourceAlpha" type="matrix" values="0 0 0 0 0 0 0 0 0 0 0 0 0 0 0 0 0 0 127 0" result="hardAlpha"/>
<feOffset dx="0.4" dy="-0.25"/>
<feGaussianBlur stdDeviation="0.15"/>
<feComposite in2="hardAlpha" operator="arithmetic" k2="-1" k3="1"/>
<feColorMatrix type="matrix" values="0 0 0 0 0.384314 0 0 0 0 0.258824 0 0 0 0 0.231373 0 0 0 1 0"/>
<feBlend mode="normal" in2="shape" result="effect1_innerShadow_343_987"/>
<feColorMatrix in="SourceAlpha" type="matrix" values="0 0 0 0 0 0 0 0 0 0 0 0 0 0 0 0 0 0 127 0" result="hardAlpha"/>
<feOffset dx="-0.2"/>
<feGaussianBlur stdDeviation="0.15"/>
<feComposite in2="hardAlpha" operator="arithmetic" k2="-1" k3="1"/>
<feColorMatrix type="matrix" values="0 0 0 0 0.670588 0 0 0 0 0.466667 0 0 0 0 0.415686 0 0 0 1 0"/>
<feBlend mode="normal" in2="effect1_innerShadow_343_987" result="effect2_innerShadow_343_987"/>
</filter>
<filter id="filter15_i_343_987" x="9.4812" y="17.8644" width="4.7876" height="4.75" filterUnits="userSpaceOnUse" color-interpolation-filters="sRGB">
<feFlood flood-opacity="0" result="BackgroundImageFix"/>
<feBlend mode="normal" in="SourceGraphic" in2="BackgroundImageFix" result="shape"/>
<feColorMatrix in="SourceAlpha" type="matrix" values="0 0 0 0 0 0 0 0 0 0 0 0 0 0 0 0 0 0 127 0" result="hardAlpha"/>
<feOffset dx="-0.25" dy="0.25"/>
<feGaussianBlur stdDeviation="0.25"/>
<feComposite in2="hardAlpha" operator="arithmetic" k2="-1" k3="1"/>
<feColorMatrix type="matrix" values="0 0 0 0 0.176471 0 0 0 0 0.12549 0 0 0 0 0.211765 0 0 0 1 0"/>
<feBlend mode="normal" in2="shape" result="effect1_innerShadow_343_987"/>
</filter>
<filter id="filter16_f_343_987" x="11.4119" y="10.506" width="2.41528" height="2.42245" filterUnits="userSpaceOnUse" color-interpolation-filters="sRGB">
<feFlood flood-opacity="0" result="BackgroundImageFix"/>
<feBlend mode="normal" in="SourceGraphic" in2="BackgroundImageFix" result="shape"/>
<feGaussianBlur stdDeviation="0.25" result="effect1_foregroundBlur_343_987"/>
</filter>
<filter id="filter17_f_343_987" x="11.6295" y="4.15505" width="6.51265" height="6.52836" filterUnits="userSpaceOnUse" color-interpolation-filters="sRGB">
<feFlood flood-opacity="0" result="BackgroundImageFix"/>
<feBlend mode="normal" in="SourceGraphic" in2="BackgroundImageFix" result="shape"/>
<feGaussianBlur stdDeviation="0.2" result="effect1_foregroundBlur_343_987"/>
</filter>
<linearGradient id="paint0_linear_343_987" x1="12.0112" y1="8.39562" x2="12.0112" y2="11.8719" gradientUnits="userSpaceOnUse">
<stop stop-color="#A77060"/>
<stop offset="1" stop-color="#6E504C"/>
</linearGradient>
<linearGradient id="paint1_linear_343_987" x1="2.14404" y1="10.7394" x2="2.57715" y2="10.8678" gradientUnits="userSpaceOnUse">
<stop stop-color="#554540"/>
<stop offset="1" stop-color="#735348" stop-opacity="0"/>
</linearGradient>
<linearGradient id="paint2_linear_343_987" x1="13.3472" y1="3.47374" x2="14.941" y2="3.47374" gradientUnits="userSpaceOnUse">
<stop stop-color="#67C175"/>
<stop offset="1" stop-color="#A1E16D"/>
</linearGradient>
<linearGradient id="paint3_linear_343_987" x1="13.3239" y1="3.30477" x2="13.3239" y2="2.83689" gradientUnits="userSpaceOnUse">
<stop stop-color="#308649"/>
<stop offset="1" stop-color="#308649" stop-opacity="0"/>
</linearGradient>
<radialGradient id="paint4_radial_343_987" cx="0" cy="0" r="1" gradientUnits="userSpaceOnUse" gradientTransform="translate(12.3938 2.10972) rotate(90) scale(3.25852 1.48604)">
<stop stop-color="#B27C6D"/>
<stop offset="0.86758" stop-color="#523C35"/>
</radialGradient>
<radialGradient id="paint5_radial_343_987" cx="0" cy="0" r="1" gradientUnits="userSpaceOnUse" gradientTransform="translate(12.5488 1.36438) rotate(-180) scale(0.795354 0.786583)">
<stop stop-color="#D19580"/>
<stop offset="1" stop-color="#D19580" stop-opacity="0"/>
</radialGradient>
<linearGradient id="paint6_linear_343_987" x1="4.14941" y1="11.8644" x2="4.14941" y2="21.5103" gradientUnits="userSpaceOnUse">
<stop stop-color="#C9885B"/>
<stop offset="1" stop-color="#E79F6A"/>
</linearGradient>
<linearGradient id="paint7_linear_343_987" x1="7.21547" y1="17.6994" x2="4.92554" y2="17.6994" gradientUnits="userSpaceOnUse">
<stop stop-color="#935B42"/>
<stop offset="1" stop-color="#B67358" stop-opacity="0"/>
</linearGradient>
<linearGradient id="paint8_linear_343_987" x1="1.51123" y1="20.4659" x2="2.07373" y2="20.4659" gradientUnits="userSpaceOnUse">
<stop stop-color="#A1714D"/>
<stop offset="1" stop-color="#A1714D" stop-opacity="0"/>
</linearGradient>
<linearGradient id="paint9_linear_343_987" x1="4.14941" y1="10.9925" x2="4.14941" y2="12.4178" gradientUnits="userSpaceOnUse">
<stop stop-color="#8B5243"/>
<stop offset="1" stop-color="#8B5243" stop-opacity="0"/>
</linearGradient>
<linearGradient id="paint10_linear_343_987" x1="17.2612" y1="20.1556" x2="22.5112" y2="20.1556" gradientUnits="userSpaceOnUse">
<stop stop-color="#FFD19E"/>
<stop offset="1" stop-color="#F2BEA5"/>
</linearGradient>
<linearGradient id="paint11_linear_343_987" x1="22.5112" y1="18.7749" x2="22.0312" y2="18.7749" gradientUnits="userSpaceOnUse">
<stop stop-color="#EEC9A8"/>
<stop offset="1" stop-color="#EEC9A8" stop-opacity="0"/>
</linearGradient>
<linearGradient id="paint12_linear_343_987" x1="19.1584" y1="11.7481" x2="19.1584" y2="12.1557" gradientUnits="userSpaceOnUse">
<stop stop-color="#A97469"/>
<stop offset="1" stop-color="#A97469" stop-opacity="0"/>
</linearGradient>
<radialGradient id="paint13_radial_343_987" cx="0" cy="0" r="1" gradientUnits="userSpaceOnUse" gradientTransform="translate(17.1792 11.8644) rotate(90) scale(0.878895 0.703125)">
<stop offset="0.306658" stop-color="#A97469"/>
<stop offset="1" stop-color="#A97469" stop-opacity="0"/>
</radialGradient>
<linearGradient id="paint14_linear_343_987" x1="8.40192" y1="16.13" x2="16.7457" y2="17.9112" gradientUnits="userSpaceOnUse">
<stop stop-color="#F2B98E"/>
<stop offset="1" stop-color="#FFD7AB"/>
</linearGradient>
<linearGradient id="paint15_linear_343_987" x1="6.52692" y1="18.5849" x2="7.34723" y2="18.5849" gradientUnits="userSpaceOnUse">
<stop offset="0.214286" stop-color="#A3785B"/>
<stop offset="0.657143" stop-color="#B27E5B"/>
<stop offset="0.914286" stop-color="#DEA072" stop-opacity="0"/>
</linearGradient>
<linearGradient id="paint16_linear_343_987" x1="17.2688" y1="18.1537" x2="16.8487" y2="18.1537" gradientUnits="userSpaceOnUse">
<stop offset="0.402996" stop-color="#FFE4B3"/>
<stop offset="1" stop-color="#FFE4B3" stop-opacity="0"/>
</linearGradient>
<linearGradient id="paint17_linear_343_987" x1="15.0401" y1="8.15444" x2="14.4304" y2="8.76416" gradientUnits="userSpaceOnUse">
<stop offset="0.189917" stop-color="#8A594A"/>
<stop offset="1" stop-color="#986658" stop-opacity="0"/>
</linearGradient>
<linearGradient id="paint18_linear_343_987" x1="9.25739" y1="7.84481" x2="9.62067" y2="8.2081" gradientUnits="userSpaceOnUse">
<stop stop-color="#794D30"/>
<stop offset="1" stop-color="#794D30" stop-opacity="0"/>
</linearGradient>
<radialGradient id="paint19_radial_343_987" cx="0" cy="0" r="1" gradientUnits="userSpaceOnUse" gradientTransform="translate(17.2688 10.7745) rotate(90) scale(2.09766 0.570007)">
<stop offset="0.273743" stop-color="#1D0C0B"/>
<stop offset="1" stop-color="#AC7C6C" stop-opacity="0"/>
</radialGradient>
<radialGradient id="paint20_radial_343_987" cx="0" cy="0" r="1" gradientUnits="userSpaceOnUse" gradientTransform="translate(6.63239 10.7276) rotate(90) scale(1.82812 0.621094)">
<stop offset="0.24359" stop-color="#1D0C0B"/>
<stop offset="1" stop-color="#1D0C0B" stop-opacity="0"/>
</radialGradient>
<linearGradient id="paint21_linear_343_987" x1="18.3119" y1="14.7692" x2="19.5105" y2="14.798" gradientUnits="userSpaceOnUse">
<stop stop-color="#53C7FF"/>
<stop offset="0.842209" stop-color="#44ACFA"/>
<stop offset="1" stop-color="#3EA2ED"/>
</linearGradient>
<linearGradient id="paint22_linear_343_987" x1="18.0112" y1="14.4894" x2="18.2163" y2="14.4894" gradientUnits="userSpaceOnUse">
<stop stop-color="#5ADFFF"/>
<stop offset="0.90937" stop-color="#5ADFFF" stop-opacity="0"/>
</linearGradient>
<linearGradient id="paint23_linear_343_987" x1="20.5619" y1="14.7692" x2="21.7605" y2="14.798" gradientUnits="userSpaceOnUse">
<stop stop-color="#53C7FF"/>
<stop offset="0.842209" stop-color="#44ACFA"/>
<stop offset="1" stop-color="#3EA2ED"/>
</linearGradient>
<linearGradient id="paint24_linear_343_987" x1="20.2612" y1="14.4894" x2="20.4663" y2="14.4894" gradientUnits="userSpaceOnUse">
<stop stop-color="#5ADFFF"/>
<stop offset="0.90937" stop-color="#5ADFFF" stop-opacity="0"/>
</linearGradient>
<linearGradient id="paint25_linear_343_987" x1="18.3119" y1="17.7692" x2="19.5105" y2="17.798" gradientUnits="userSpaceOnUse">
<stop stop-color="#53C7FF"/>
<stop offset="0.842209" stop-color="#44ACFA"/>
<stop offset="1" stop-color="#3EA2ED"/>
</linearGradient>
<linearGradient id="paint26_linear_343_987" x1="18.0112" y1="17.4894" x2="18.2163" y2="17.4894" gradientUnits="userSpaceOnUse">
<stop stop-color="#5ADFFF"/>
<stop offset="0.90937" stop-color="#5ADFFF" stop-opacity="0"/>
</linearGradient>
<linearGradient id="paint27_linear_343_987" x1="20.5619" y1="17.7692" x2="21.7605" y2="17.798" gradientUnits="userSpaceOnUse">
<stop stop-color="#53C7FF"/>
<stop offset="0.842209" stop-color="#44ACFA"/>
<stop offset="1" stop-color="#3EA2ED"/>
</linearGradient>
<linearGradient id="paint28_linear_343_987" x1="20.2612" y1="17.4894" x2="20.4663" y2="17.4894" gradientUnits="userSpaceOnUse">
<stop stop-color="#5ADFFF"/>
<stop offset="0.90937" stop-color="#5ADFFF" stop-opacity="0"/>
</linearGradient>
<linearGradient id="paint29_linear_343_987" x1="2.61019" y1="15.2192" x2="4.03338" y2="13.2629" gradientUnits="userSpaceOnUse">
<stop stop-color="#54D3FF"/>
<stop offset="1" stop-color="#44ACFA"/>
</linearGradient>
<linearGradient id="paint30_linear_343_987" x1="2.27612" y1="14.4894" x2="2.48117" y2="14.4894" gradientUnits="userSpaceOnUse">
<stop stop-color="#5ADFFF"/>
<stop offset="0.90937" stop-color="#5ADFFF" stop-opacity="0"/>
</linearGradient>
<linearGradient id="paint31_linear_343_987" x1="4.86019" y1="15.2192" x2="6.28338" y2="13.2629" gradientUnits="userSpaceOnUse">
<stop stop-color="#54D3FF"/>
<stop offset="1" stop-color="#44ACFA"/>
</linearGradient>
<linearGradient id="paint32_linear_343_987" x1="4.52612" y1="14.4894" x2="4.73117" y2="14.4894" gradientUnits="userSpaceOnUse">
<stop stop-color="#5ADFFF"/>
<stop offset="0.90937" stop-color="#5ADFFF" stop-opacity="0"/>
</linearGradient>
<linearGradient id="paint33_linear_343_987" x1="2.61019" y1="18.2192" x2="4.03338" y2="16.2629" gradientUnits="userSpaceOnUse">
<stop stop-color="#54D3FF"/>
<stop offset="1" stop-color="#44ACFA"/>
</linearGradient>
<linearGradient id="paint34_linear_343_987" x1="2.27612" y1="17.4894" x2="2.48117" y2="17.4894" gradientUnits="userSpaceOnUse">
<stop stop-color="#5ADFFF"/>
<stop offset="0.90937" stop-color="#5ADFFF" stop-opacity="0"/>
</linearGradient>
<linearGradient id="paint35_linear_343_987" x1="4.86019" y1="18.2192" x2="6.28338" y2="16.2629" gradientUnits="userSpaceOnUse">
<stop stop-color="#54D3FF"/>
<stop offset="1" stop-color="#44ACFA"/>
</linearGradient>
<linearGradient id="paint36_linear_343_987" x1="4.52612" y1="17.4894" x2="4.73117" y2="17.4894" gradientUnits="userSpaceOnUse">
<stop stop-color="#5ADFFF"/>
<stop offset="0.90937" stop-color="#5ADFFF" stop-opacity="0"/>
</linearGradient>
<radialGradient id="paint37_radial_343_987" cx="0" cy="0" r="1" gradientUnits="userSpaceOnUse" gradientTransform="translate(12.1665 10.0275) rotate(90) scale(1.39443 0.63957)">
<stop stop-color="#B1786C"/>
<stop offset="1" stop-color="#6A4532"/>
<stop offset="1" stop-color="#735351"/>
</radialGradient>
<radialGradient id="paint38_radial_343_987" cx="0" cy="0" r="1" gradientUnits="userSpaceOnUse" gradientTransform="translate(12.1762 9.87812) scale(0.357577 0.191871)">
<stop stop-color="#BE8370"/>
<stop offset="1" stop-color="#BE8370" stop-opacity="0"/>
</radialGradient>
<linearGradient id="paint39_linear_343_987" x1="11.6362" y1="10.7469" x2="13.3775" y2="12.4882" gradientUnits="userSpaceOnUse">
<stop stop-color="#6C4B40"/>
<stop offset="1" stop-color="#B16F60"/>
</linearGradient>
<linearGradient id="paint40_linear_343_987" x1="12.0112" y1="4.40747" x2="12.0112" y2="12.2468" gradientUnits="userSpaceOnUse">
<stop stop-color="#B67A6C"/>
<stop offset="1" stop-color="#825E59"/>
</linearGradient>
<linearGradient id="paint41_linear_343_987" x1="15.0797" y1="7.12812" x2="14.8688" y2="7.33905" gradientUnits="userSpaceOnUse">
<stop stop-color="#BF8B78"/>
<stop offset="1" stop-color="#BF8B78" stop-opacity="0"/>
</linearGradient>
<linearGradient id="paint42_linear_343_987" x1="12.0112" y1="12.6143" x2="12.0112" y2="11.7436" gradientUnits="userSpaceOnUse">
<stop stop-color="#543C46"/>
<stop offset="1" stop-color="#543C46" stop-opacity="0"/>
</linearGradient>
<radialGradient id="paint43_radial_343_987" cx="0" cy="0" r="1" gradientUnits="userSpaceOnUse" gradientTransform="translate(12.0112 6.62779) rotate(-90) scale(1.47313 0.982626)">
<stop offset="0.526596" stop-color="#7E4541"/>
<stop offset="1" stop-color="#7E4541" stop-opacity="0"/>
</radialGradient>
<linearGradient id="paint44_linear_343_987" x1="9.7312" y1="20.4781" x2="14.2687" y2="20.4781" gradientUnits="userSpaceOnUse">
<stop stop-color="#534264"/>
<stop offset="1" stop-color="#423B49"/>
</linearGradient>
<linearGradient id="paint45_linear_343_987" x1="9.7312" y1="20.4964" x2="10.2119" y2="20.4964" gradientUnits="userSpaceOnUse">
<stop offset="0.347025" stop-color="#695282"/>
<stop offset="1" stop-color="#695282" stop-opacity="0"/>
</linearGradient>
<linearGradient id="paint46_linear_343_987" x1="13.2891" y1="12.2695" x2="11.931" y2="10.989" gradientUnits="userSpaceOnUse">
<stop stop-color="#C38878"/>
<stop offset="1" stop-color="#A57A6D"/>
</linearGradient>
<linearGradient id="paint47_linear_343_987" x1="17.7886" y1="10.5316" x2="12.2282" y2="4.62722" gradientUnits="userSpaceOnUse">
<stop stop-color="#D4967E" stop-opacity="0"/>
<stop offset="1" stop-color="#D4967E"/>
</linearGradient>
</defs>
</svg>
