<svg width="222" height="107" viewBox="0 0 222 107" fill="none" xmlns="http://www.w3.org/2000/svg">
<g clip-path="url(#clip0_343_709)">
<path d="M78.6668 67.1875H69.9669V59.1375C69.9669 54.4125 67.5309 51.6125 63.5289 51.6125C59.5269 51.6125 57.178 54.4125 57.178 59.1375V62.55C57.178 67.275 58.8309 69.4625 65.7038 72.2625L69.1839 73.575C76.2308 76.2875 78.8408 80.575 78.8408 89.5875V91.25C78.8408 101.138 73.0988 107 63.4419 107C53.785 107 48.304 101.225 48.304 91.25V83.8125H57.004V91.8625C57.004 96.5875 59.4399 99.3875 63.5289 99.3875C67.7049 99.3875 70.1409 96.5875 70.1409 91.8625V88.1875C70.1409 83.4625 68.4009 81.275 61.7889 78.5625L57.961 77.1625C51.175 74.45 48.478 69.9 48.478 61.0625V59.75C48.478 49.6875 53.959 44 63.4419 44C73.0118 44 78.6668 49.8625 78.6668 59.75V67.1875Z" fill="#1F1F1F"/>
<path d="M109.937 44.875V52.4875H99.9326V106.125H91.2326V52.4875H81.2277V44.875H109.937Z" fill="#1F1F1F"/>
<path d="M113.473 44.875H128.001C136.875 44.875 143.487 49.3375 143.487 60.0125V90.9875C143.487 101.75 136.875 106.125 128.001 106.125H113.473V44.875ZM122.172 52.4875V98.5125H127.914C131.568 98.5125 134.7 96.7625 134.7 91.075V59.925C134.7 54.2375 131.568 52.4875 127.914 52.4875H122.172Z" fill="#1F1F1F"/>
<path d="M156.749 44.7875V71.65H158.141L167.798 44.7875H177.107L165.275 75.5L178.499 106.125H169.19L158.141 79.35H156.749V106.125H148.049V44.7875H156.749Z" fill="#1F1F1F"/>
<path d="M181.524 44.875H190.224V106.125H181.524V44.875Z" fill="#1F1F1F"/>
<path d="M222 44.875V52.4875H211.995V106.125H203.295V52.4875H193.29V44.875H222Z" fill="#1F1F1F"/>
<path d="M13.5162 106.125L36.1839 44.9521H44.6033L21.9356 106.125H13.5162Z" fill="#1F1F1F"/>
<path d="M0 106.125L22.6677 44.9521H31.0872L8.41944 106.125H0Z" fill="#1F1F1F"/>
<path opacity="0.6" d="M66.52 12H64.152V0.592041H74.28V12H71.912V2.73604H66.52V12ZM86.6215 4.52804C86.6215 5.79737 86.1948 6.76804 85.3415 7.44004C84.4988 8.11204 83.2775 8.44271 81.6775 8.43204H78.9095V12H76.6055V0.592041H81.5175C83.2242 0.592041 84.4988 0.922708 85.3415 1.58404C86.1948 2.23471 86.6215 3.21604 86.6215 4.52804ZM84.2695 4.51204C84.2695 3.84004 84.0508 3.34937 83.6135 3.04004C83.1762 2.73071 82.4828 2.57604 81.5335 2.57604H78.9095V6.44804H81.5975C82.5148 6.44804 83.1868 6.29337 83.6135 5.98404C84.0508 5.66404 84.2695 5.17337 84.2695 4.51204ZM98.083 12H95.667L94.627 9.47204H89.395L88.403 12H85.955L90.755 0.592041H93.187L98.083 12ZM90.163 7.53604H93.827L91.971 2.99204L90.163 7.53604ZM101.661 12H99.3086V0.592041H101.661V5.10404H103.853L107.453 0.592041H110.141L105.789 6.01604L110.301 12H107.533L103.981 7.23204H101.661V12ZM116.449 2.67204V12H114.017V2.67204H110.449V0.592041H120.017V2.67204H116.449ZM132.068 0.592041V12H129.7V5.05604L129.78 3.71204L129.044 5.05604L124.116 12H121.652V0.592041H124.02V7.56804L123.972 8.92804L124.612 7.68004L129.588 0.592041H132.068ZM136.739 12H134.387V0.592041H136.739V5.10404H138.931L142.531 0.592041H145.219L140.867 6.01604L145.379 12H142.611L139.059 7.23204H136.739V12ZM157.708 12H155.292L154.252 9.47204H149.02L148.028 12H145.58L150.38 0.592041H152.812L157.708 12ZM149.788 7.53604H153.452L151.596 2.99204L149.788 7.53604Z" fill="#1F1F1F"/>
</g>
<defs>
<clipPath id="clip0_343_709">
<rect width="222" height="107" fill="white"/>
</clipPath>
</defs>
</svg>
