<svg width="1em" height="1em" viewBox="0 0 20 20" fill="none" xmlns="http://www.w3.org/2000/svg">
  <path d="M8.12502 9.99998C8.12502 8.96445 8.96449 8.12498 10 8.12498C11.0356 8.12498 11.875 8.96445 11.875 9.99998C11.875 11.0355 11.0356 11.875 10 11.875C8.96449 11.875 8.12502 11.0355 8.12502 9.99998Z" fill="currentColor" />
  <path fill-rule="evenodd" clip-rule="evenodd" d="M1.66669 9.99998C1.66669 11.3661 2.02082 11.8262 2.7291 12.7464C4.14332 14.5837 6.51512 16.6666 10 16.6666C13.4849 16.6666 15.8567 14.5837 17.2709 12.7464C17.9792 11.8262 18.3334 11.3661 18.3334 9.99998C18.3334 8.63383 17.9792 8.17375 17.2709 7.25359C15.8567 5.41628 13.4849 3.33331 10 3.33331C6.51512 3.33331 4.14332 5.41628 2.7291 7.25359C2.02082 8.17375 1.66669 8.63383 1.66669 9.99998ZM10 6.87498C8.27413 6.87498 6.87502 8.27409 6.87502 9.99998C6.87502 11.7259 8.27413 13.125 10 13.125C11.7259 13.125 13.125 11.7259 13.125 9.99998C13.125 8.27409 11.7259 6.87498 10 6.87498Z" fill="currentColor" />
</svg>