<svg width="1em" height="1em" viewBox="0 0 20 20" fill="none" xmlns="http://www.w3.org/2000/svg">
  <path fill-rule="evenodd" clip-rule="evenodd" d="M1.33828 5.06738C1.76131 4.88608 2.2512 5.08204 2.4325 5.50507L1.66655 5.83333C2.4325 5.50507 2.43262 5.50534 2.4325 5.50507L2.43207 5.50407C2.43184 5.50353 2.43201 5.50392 2.43207 5.50407L2.43533 5.51146C2.43867 5.51897 2.44441 5.53173 2.45257 5.5494C2.4689 5.58475 2.49489 5.63965 2.53072 5.71131C2.60244 5.85474 2.7132 6.06455 2.86439 6.31856C3.16773 6.82815 3.62858 7.50687 4.25637 8.18296C4.40435 8.34232 4.56095 8.50091 4.72636 8.65671C4.73327 8.66299 4.74011 8.66941 4.74686 8.67597C5.9841 9.8345 7.71014 10.8333 9.99988 10.8333C11.0073 10.8333 11.8985 10.641 12.684 10.3318C13.7057 9.92968 14.562 9.32427 15.2629 8.66642C16.0543 7.92365 16.6355 7.12503 17.0193 6.50916C17.2104 6.20243 17.3505 5.94431 17.4415 5.76591C17.4869 5.6768 17.52 5.60785 17.5409 5.56301C17.5513 5.54059 17.5587 5.52422 17.5631 5.5144L17.5673 5.50507C17.7487 5.08227 18.2386 4.88613 18.6615 5.06738C19.0845 5.24868 19.2805 5.73857 19.0992 6.1616L18.3332 5.83333C19.0992 6.1616 19.0992 6.16141 19.0992 6.1616L19.0974 6.16578L19.0944 6.17264L19.0849 6.19417C19.0769 6.21195 19.0658 6.23648 19.0514 6.26726C19.0227 6.32881 18.9811 6.41545 18.9262 6.52311C18.8165 6.73824 18.6532 7.0384 18.4338 7.39056C18.0983 7.92902 17.6266 8.59683 17.0079 9.27024L17.6725 9.93478C17.9979 10.2602 17.9979 10.7879 17.6725 11.1133C17.347 11.4387 16.8194 11.4387 16.494 11.1133L15.7938 10.4131C15.3236 10.7929 14.7974 11.1511 14.213 11.4602L14.865 12.4622C15.116 12.8479 15.0068 13.3641 14.621 13.6152C14.2353 13.8662 13.7191 13.7569 13.4681 13.3712L12.6468 12.1091C12.081 12.2825 11.4766 12.4054 10.8332 12.4631V13.75C10.8332 14.2102 10.4601 14.5833 9.99988 14.5833C9.53964 14.5833 9.16655 14.2102 9.16655 13.75V12.4632C8.52101 12.4055 7.9167 12.2823 7.3527 12.1094L6.5317 13.3712C6.28069 13.7569 5.76449 13.8662 5.37872 13.6152C4.99296 13.3641 4.88372 12.8479 5.13473 12.4622L5.78673 11.4601C5.2033 11.1514 4.67696 10.7931 4.20614 10.413L3.5058 11.1133C3.18037 11.4387 2.65273 11.4387 2.32729 11.1133C2.00185 10.7879 2.00185 10.2602 2.32729 9.93478L2.99183 9.27024C2.28766 8.50378 1.77302 7.74353 1.43224 7.17103C1.25792 6.87816 1.12779 6.63224 1.04001 6.45666C0.996081 6.36881 0.962661 6.29839 0.93952 6.24829C0.927947 6.22323 0.918936 6.20324 0.912459 6.18868L0.904639 6.17094L0.902145 6.1652L0.901251 6.16313L0.900893 6.1623C0.900738 6.16194 0.900593 6.1616 1.66655 5.83333L0.900893 6.1623C0.719596 5.73927 0.915256 5.24868 1.33828 5.06738Z" fill="currentColor" />
</svg>